<svg width="42" height="26" viewBox="0 0 42 26" fill="none" xmlns="http://www.w3.org/2000/svg">
<path d="M14.9922 23.5014L20.4488 18.0467L29.9336 8.56191C30.8888 7.60671 32.013 6.92607 33.212 6.52191C34.7163 6.01215 36.3339 5.93631 37.8709 6.29535C39.3656 6.64095 40.7845 7.39647 41.9499 8.56287L36.6498 13.8611L36.0978 14.4131L30.7074 19.8035L28.2181 22.2928L27.0095 23.5014C23.6907 26.8211 18.3119 26.8211 14.9922 23.5014Z" fill="url(#paint0_linear_194_4574)"/>
<path d="M32.771 11.8192C33.0753 10.072 33.3317 8.28639 33.2117 6.52191C34.716 6.01215 36.3336 5.93631 37.8705 6.29535C39.3653 6.64095 40.7841 7.39647 41.9496 8.56287L36.6494 13.8611L30.7061 19.8045C31.692 17.2365 32.2958 14.5322 32.771 11.8192Z" fill="url(#paint1_linear_194_4574)"/>
<path d="M14.9922 23.5014L20.4488 18.0467L21.1688 17.3267C22.4658 17.368 23.7647 17.3018 25.0635 17.1626C26.8866 16.9706 28.7039 16.6365 30.4952 16.2563C30.9685 16.1565 31.4408 16.0509 31.9122 15.9338C33.0709 15.6496 34.2143 15.3021 35.2991 14.8096C35.5688 14.6867 35.8347 14.5552 36.0968 14.4131L30.7064 19.8035L28.2171 22.2928L27.0085 23.5014C23.6907 26.8211 18.3119 26.8211 14.9922 23.5014Z" fill="url(#paint2_linear_194_4574)"/>
<path d="M14.9922 23.5014L20.4488 18.0467L24.3685 14.127C24.4837 15.1609 24.7199 16.1805 25.0635 17.1616C25.1355 17.3699 25.2152 17.5773 25.2968 17.7827C25.9755 19.4646 26.9739 20.9526 28.2037 22.2774C28.2085 22.2822 28.2133 22.287 28.2171 22.2918L27.0085 23.5005C23.6907 26.8211 18.3119 26.8211 14.9922 23.5014Z" fill="url(#paint3_linear_194_4574)"/>
<path d="M0.0498047 8.56288C1.1874 7.42528 2.56884 6.67744 4.02516 6.32032C4.11252 6.2992 4.19988 6.27904 4.28628 6.2608C4.95252 6.11776 5.62932 6.05728 6.30708 6.07648C6.67668 6.088 7.04725 6.12256 7.41397 6.18208C8.34805 6.33184 9.26004 6.63904 10.1116 7.1008C10.8133 7.48192 11.4728 7.96864 12.0661 8.56192L12.8351 9.33088L22.8392 19.3331L23.8156 20.3094L23.926 20.4198L25.5301 22.024L26.3125 22.8064L27.0066 23.5005C26.566 23.9392 26.0908 24.3222 25.5877 24.6448C25.0751 24.975 24.5336 25.2448 23.9749 25.4541C23.3039 25.7037 22.6088 25.8669 21.9052 25.9408C21.5797 25.9754 21.2504 25.9917 20.924 25.9898C19.2191 25.9754 17.5189 25.4502 16.0712 24.4163C15.6911 24.1466 15.3311 23.8413 14.9912 23.5005L9.96084 18.4701L8.57364 17.0838L0.0498047 8.56288Z" fill="url(#paint4_linear_194_4574)"/>
<path d="M8.57227 17.0848C9.90571 17.7558 11.2862 18.329 12.7051 18.785C13.7342 19.119 14.7844 19.3878 15.85 19.5904C18.1348 20.0243 20.4667 20.1424 22.7879 20.2595C23.1297 20.2758 23.4734 20.2941 23.8151 20.3104L23.9255 20.4208L25.5297 22.025L26.3121 22.8074L27.0062 23.5014C26.5655 23.9402 26.0903 24.3232 25.5873 24.6458C25.0747 24.976 24.5332 25.2458 23.9745 25.455C23.3035 25.7046 22.6084 25.8678 21.9047 25.9418C21.5793 25.9763 21.25 25.9926 20.9236 25.9907C19.2187 25.9763 17.5185 25.4512 16.0708 24.4173C15.6907 24.1475 15.3307 23.8422 14.9908 23.5014L9.96042 18.471L8.57227 17.0848Z" fill="url(#paint5_linear_194_4574)"/>
<path d="M0.0498047 8.56288C1.1874 7.42528 2.56884 6.67744 4.02516 6.32032C4.11252 6.2992 4.19988 6.27904 4.28628 6.2608C4.95252 6.11776 5.62932 6.05728 6.30708 6.07648C6.67668 6.088 7.04725 6.12256 7.41397 6.18208C8.34805 6.33184 9.26004 6.63904 10.1116 7.1008C10.148 11.1318 10.9717 15.1562 12.7055 18.785C12.7717 18.9261 12.8389 19.0662 12.909 19.2054C13.7029 20.7933 14.6677 22.2899 15.6296 23.7837C15.7544 23.9776 15.9061 24.1917 16.0703 24.4163C15.6901 24.1466 15.3301 23.8413 14.9903 23.5005L9.95988 18.4701L8.57268 17.0838L0.0498047 8.56288Z" fill="url(#paint6_linear_194_4574)"/>
<path d="M11.7314 4.42048C11.7314 4.17088 11.8265 3.92128 12.0166 3.7312C12.8575 2.89024 13.7868 2.19136 14.7756 1.63552C15.0252 1.4944 15.2786 1.36288 15.535 1.24096C16.5622 0.752318 17.6402 0.409597 18.7394 0.211837C19.4873 0.0774374 20.2438 0.00927734 21.0002 0.00927734C21.9046 0.00927734 22.8089 0.105278 23.6959 0.298238C23.8726 0.336638 24.0482 0.377917 24.2239 0.423037C25.3625 0.719677 26.4674 1.17856 27.5042 1.7968C28.3884 2.32288 29.2226 2.96896 29.9849 3.7312C30.365 4.11232 30.365 4.7296 29.9849 5.11072L27.15 7.9456L22.4326 12.6621L21.9622 13.1325L21.0022 14.0925L20.9465 14.0368L17.6786 10.7709L17.6585 10.7488L15.3094 8.39968L12.0185 5.10976C11.8265 4.91968 11.7314 4.67008 11.7314 4.42048Z" fill="url(#paint7_linear_194_4574)"/>
<path d="M20.9446 14.0378L17.6768 10.7718C19.7235 10.3197 21.6675 9.39904 23.2908 8.07424C25.4643 6.30112 26.4118 4.1824 27.5024 1.79776C28.3865 2.32384 29.2208 2.96992 29.983 3.73216C30.3632 4.11328 30.3632 4.73056 29.983 5.11168L21.9603 13.1325L21.0003 14.0925L20.9446 14.0378Z" fill="url(#paint8_linear_194_4574)"/>
<path d="M11.7314 4.42048C11.7314 4.17088 11.8265 3.92128 12.0166 3.7312C12.8575 2.89024 13.7868 2.19136 14.7756 1.63552C16.0236 0.932796 17.3647 0.458556 18.7394 0.210876C17.9676 2.65888 18.0098 5.36704 18.9007 7.7776C19.445 9.24928 20.3004 10.599 21.3794 11.7357C21.7078 12.0813 22.063 12.3818 22.4316 12.6621L21.9612 13.1325L21.0012 14.0925L20.9455 14.0368L17.6777 10.7709L17.6575 10.7488L12.0175 5.10976C11.8265 4.91968 11.7314 4.67008 11.7314 4.42048Z" fill="url(#paint9_linear_194_4574)"/>
<path d="M11.7314 4.42047C11.7314 4.17087 11.8265 3.92127 12.0166 3.73119C12.8575 2.89023 13.7868 2.19135 14.7756 1.63551C15.0252 1.49439 15.2786 1.36287 15.535 1.24095C14.766 3.18303 14.5826 5.35647 15.0319 7.39839C15.1068 7.73631 15.199 8.07135 15.3074 8.40063L12.0166 5.11071C11.8265 4.91967 11.7314 4.67007 11.7314 4.42047Z" fill="url(#paint10_linear_194_4574)"/>
<defs>
<linearGradient id="paint0_linear_194_4574" x1="17.0433" y1="7.54839" x2="47.1063" y2="12.3964" gradientUnits="userSpaceOnUse">
<stop stop-color="#7D26FF"/>
</linearGradient>
<linearGradient id="paint1_linear_194_4574" x1="31.5615" y1="7.09011" x2="44.3049" y2="8.33339" gradientUnits="userSpaceOnUse">
<stop stop-color="#7D26FF"/>
</linearGradient>
<linearGradient id="paint2_linear_194_4574" x1="16.598" y1="15.2707" x2="39.6579" y2="20.2791" gradientUnits="userSpaceOnUse">
<stop stop-color="#7D26FF"/>
</linearGradient>
<linearGradient id="paint3_linear_194_4574" x1="15.9984" y1="15.0058" x2="30.868" y2="16.9808" gradientUnits="userSpaceOnUse">
<stop stop-color="#7D26FF"/>
</linearGradient>
<linearGradient id="paint4_linear_194_4574" x1="2.10087" y1="7.54834" x2="32.1627" y2="12.3963" gradientUnits="userSpaceOnUse">
<stop stop-color="#7D26FF"/>
</linearGradient>
<linearGradient id="paint5_linear_194_4574" x1="9.97485" y1="17.7445" x2="29.8574" y2="22.648" gradientUnits="userSpaceOnUse">
<stop stop-color="#7D26FF"/>
</linearGradient>
<linearGradient id="paint6_linear_194_4574" x1="1.26875" y1="7.43177" x2="19.4028" y2="9.31886" gradientUnits="userSpaceOnUse">
<stop stop-color="#7D26FF"/>
</linearGradient>
<linearGradient id="paint7_linear_194_4574" x1="13.142" y1="1.05247" x2="33.8443" y2="4.29955" gradientUnits="userSpaceOnUse">
<stop stop-color="#7D26FF"/>
</linearGradient>
<linearGradient id="paint8_linear_194_4574" x1="18.6348" y1="2.70848" x2="32.8303" y2="4.4407" gradientUnits="userSpaceOnUse">
<stop stop-color="#7D26FF"/>
</linearGradient>
<linearGradient id="paint9_linear_194_4574" x1="12.5456" y1="1.23914" x2="24.6862" y2="2.35418" gradientUnits="userSpaceOnUse">
<stop stop-color="#7D26FF"/>
</linearGradient>
<linearGradient id="paint10_linear_194_4574" x1="12.0208" y1="1.7713" x2="16.3554" y2="2.04567" gradientUnits="userSpaceOnUse">
<stop stop-color="#7D26FF"/>
</linearGradient>
</defs>
</svg>
